<?xml version="1.0" encoding="UTF-8" standalone="no"?>
<!-- Created with Inkscape (http://www.inkscape.org/) -->

<svg
   xmlns:dc="http://purl.org/dc/elements/1.1/"
   xmlns:cc="http://creativecommons.org/ns#"
   xmlns:rdf="http://www.w3.org/1999/02/22-rdf-syntax-ns#"
   xmlns:svg="http://www.w3.org/2000/svg"
   xmlns="http://www.w3.org/2000/svg"
   xmlns:sodipodi="http://sodipodi.sourceforge.net/DTD/sodipodi-0.dtd"
   xmlns:inkscape="http://www.inkscape.org/namespaces/inkscape"
   id="svg2"
   version="1.1"
   inkscape:version="0.48.4 r9939"
   width="450"
   height="288"
   xml:space="preserve"
   sodipodi:docname="ink_ext_XXXXXX.svgCKH7UX"><sodipodi:namedview
     pagecolor="#ffffff"
     bordercolor="#666666"
     borderopacity="1"
     objecttolerance="10"
     gridtolerance="10"
     guidetolerance="10"
     inkscape:pageopacity="0"
     inkscape:pageshadow="2"
     inkscape:window-width="1871"
     inkscape:window-height="1056"
     id="namedview4"
     showgrid="false"
     inkscape:zoom="1.6128472"
     inkscape:cx="194.56704"
     inkscape:cy="80.916272"
     inkscape:window-x="1969"
     inkscape:window-y="24"
     inkscape:window-maximized="1"
     inkscape:current-layer="textext-b9bcc14d-20"><inkscape:grid
       type="xygrid"
       id="grid4579" /></sodipodi:namedview><metadata
     id="metadata8"><rdf:RDF><cc:Work
         rdf:about=""><dc:format>image/svg+xml</dc:format><dc:type
           rdf:resource="http://purl.org/dc/dcmitype/StillImage" /></cc:Work></rdf:RDF></metadata><defs
     id="defs6"><clipPath
       clipPathUnits="userSpaceOnUse"
       id="clipPath20"><path
         d="m 53.416687,49.153781 295.783313,0 0,165.946219 -295.783313,0 0,-165.946219 z"
         id="path22" /></clipPath><clipPath
       clipPathUnits="userSpaceOnUse"
       id="clipPath38"><path
         d="m 53.416687,49.153781 295.783313,0 0,165.946219 -295.783313,0 0,-165.946219 z"
         id="path40" /></clipPath><clipPath
       clipPathUnits="userSpaceOnUse"
       id="clipPath56"><path
         d="m 53.416687,49.153781 295.783313,0 0,165.946219 -295.783313,0 0,-165.946219 z"
         id="path58" /></clipPath><clipPath
       clipPathUnits="userSpaceOnUse"
       id="clipPath74"><path
         d="m 53.416687,49.153781 295.783313,0 0,165.946219 -295.783313,0 0,-165.946219 z"
         id="path76" /></clipPath><clipPath
       clipPathUnits="userSpaceOnUse"
       id="clipPath118"><path
         d="m 53.416687,49.153781 295.783313,0 0,165.946219 -295.783313,0 0,-165.946219 z"
         id="path120" /></clipPath><clipPath
       clipPathUnits="userSpaceOnUse"
       id="clipPath136"><path
         d="m 53.416687,49.153781 295.783313,0 0,165.946219 -295.783313,0 0,-165.946219 z"
         id="path138" /></clipPath><clipPath
       clipPathUnits="userSpaceOnUse"
       id="clipPath154"><path
         d="m 53.416687,49.153781 295.783313,0 0,165.946219 -295.783313,0 0,-165.946219 z"
         id="path156" /></clipPath><clipPath
       clipPathUnits="userSpaceOnUse"
       id="clipPath172"><path
         d="m 53.416687,49.153781 295.783313,0 0,165.946219 -295.783313,0 0,-165.946219 z"
         id="path174" /></clipPath><clipPath
       clipPathUnits="userSpaceOnUse"
       id="clipPath190"><path
         d="m 53.416687,49.153781 295.783313,0 0,165.946219 -295.783313,0 0,-165.946219 z"
         id="path192" /></clipPath><clipPath
       clipPathUnits="userSpaceOnUse"
       id="clipPath208"><path
         d="m 53.416687,49.153781 295.783313,0 0,165.946219 -295.783313,0 0,-165.946219 z"
         id="path210" /></clipPath><clipPath
       clipPathUnits="userSpaceOnUse"
       id="clipPath254"><path
         d="m 53.416687,49.153781 295.783313,0 0,165.946219 -295.783313,0 0,-165.946219 z"
         id="path256" /></clipPath><clipPath
       clipPathUnits="userSpaceOnUse"
       id="clipPath264"><path
         d="M -6,-6 6,-6 6,6 -6,6 -6,-6 z"
         id="path266" /></clipPath><clipPath
       clipPathUnits="userSpaceOnUse"
       id="clipPath276"><path
         d="M -6,-6 6,-6 6,6 -6,6 -6,-6 z"
         id="path278" /></clipPath><clipPath
       clipPathUnits="userSpaceOnUse"
       id="clipPath288"><path
         d="M -6,-6 6,-6 6,6 -6,6 -6,-6 z"
         id="path290" /></clipPath><clipPath
       clipPathUnits="userSpaceOnUse"
       id="clipPath300"><path
         d="M -6,-6 6,-6 6,6 -6,6 -6,-6 z"
         id="path302" /></clipPath><clipPath
       clipPathUnits="userSpaceOnUse"
       id="clipPath312"><path
         d="M -6,-6 6,-6 6,6 -6,6 -6,-6 z"
         id="path314" /></clipPath><clipPath
       clipPathUnits="userSpaceOnUse"
       id="clipPath324"><path
         d="M -6,-6 6,-6 6,6 -6,6 -6,-6 z"
         id="path326" /></clipPath><clipPath
       clipPathUnits="userSpaceOnUse"
       id="clipPath336"><path
         d="M -6,-6 6,-6 6,6 -6,6 -6,-6 z"
         id="path338" /></clipPath><clipPath
       clipPathUnits="userSpaceOnUse"
       id="clipPath348"><path
         d="M -6,-6 6,-6 6,6 -6,6 -6,-6 z"
         id="path350" /></clipPath><clipPath
       clipPathUnits="userSpaceOnUse"
       id="clipPath360"><path
         d="M -6,-6 6,-6 6,6 -6,6 -6,-6 z"
         id="path362" /></clipPath><clipPath
       clipPathUnits="userSpaceOnUse"
       id="clipPath372"><path
         d="M -6,-6 6,-6 6,6 -6,6 -6,-6 z"
         id="path374" /></clipPath><clipPath
       clipPathUnits="userSpaceOnUse"
       id="clipPath384"><path
         d="M -6,-6 6,-6 6,6 -6,6 -6,-6 z"
         id="path386" /></clipPath><clipPath
       clipPathUnits="userSpaceOnUse"
       id="clipPath396"><path
         d="M -6,-6 6,-6 6,6 -6,6 -6,-6 z"
         id="path398" /></clipPath><clipPath
       clipPathUnits="userSpaceOnUse"
       id="clipPath408"><path
         d="M -6,-6 6,-6 6,6 -6,6 -6,-6 z"
         id="path410" /></clipPath><clipPath
       clipPathUnits="userSpaceOnUse"
       id="clipPath420"><path
         d="M -6,-6 6,-6 6,6 -6,6 -6,-6 z"
         id="path422" /></clipPath><clipPath
       clipPathUnits="userSpaceOnUse"
       id="clipPath432"><path
         d="M -6,-6 6,-6 6,6 -6,6 -6,-6 z"
         id="path434" /></clipPath><clipPath
       clipPathUnits="userSpaceOnUse"
       id="clipPath444"><path
         d="M -6,-6 6,-6 6,6 -6,6 -6,-6 z"
         id="path446" /></clipPath><clipPath
       clipPathUnits="userSpaceOnUse"
       id="clipPath456"><path
         d="M -6,-6 6,-6 6,6 -6,6 -6,-6 z"
         id="path458" /></clipPath><clipPath
       clipPathUnits="userSpaceOnUse"
       id="clipPath468"><path
         d="M -6,-6 6,-6 6,6 -6,6 -6,-6 z"
         id="path470" /></clipPath><clipPath
       clipPathUnits="userSpaceOnUse"
       id="clipPath480"><path
         d="M -6,-6 6,-6 6,6 -6,6 -6,-6 z"
         id="path482" /></clipPath><clipPath
       clipPathUnits="userSpaceOnUse"
       id="clipPath492"><path
         d="M -6,-6 6,-6 6,6 -6,6 -6,-6 z"
         id="path494" /></clipPath><clipPath
       clipPathUnits="userSpaceOnUse"
       id="clipPath504"><path
         d="m 53.416687,49.153781 295.783313,0 0,165.946219 -295.783313,0 0,-165.946219 z"
         id="path506" /></clipPath><clipPath
       clipPathUnits="userSpaceOnUse"
       id="clipPath514"><path
         d="m 98.896922,71.181993 1.999998,0 0,14.279822 -1.999998,0 0,-14.279822 z"
         id="path516" /></clipPath><clipPath
       clipPathUnits="userSpaceOnUse"
       id="clipPath526"><path
         d="m 53.416687,49.153781 295.783313,0 0,165.946219 -295.783313,0 0,-165.946219 z"
         id="path528" /></clipPath><clipPath
       clipPathUnits="userSpaceOnUse"
       id="clipPath536"><path
         d="m 103.1224,73.053622 2,0 0,36.891818 -2,0 0,-36.891818 z"
         id="path538" /></clipPath><clipPath
       clipPathUnits="userSpaceOnUse"
       id="clipPath548"><path
         d="m 53.416687,49.153781 295.783313,0 0,165.946219 -295.783313,0 0,-165.946219 z"
         id="path550" /></clipPath><clipPath
       clipPathUnits="userSpaceOnUse"
       id="clipPath558"><path
         d="m 124.24978,73.982446 2,0 0,29.440264 -2,0 0,-29.440264 z"
         id="path560" /></clipPath><clipPath
       clipPathUnits="userSpaceOnUse"
       id="clipPath570"><path
         d="m 53.416687,49.153781 295.783313,0 0,165.946219 -295.783313,0 0,-165.946219 z"
         id="path572" /></clipPath><clipPath
       clipPathUnits="userSpaceOnUse"
       id="clipPath580"><path
         d="m 136.92621,79.440318 2,0 0,46.644302 -2,0 0,-46.644302 z"
         id="path582" /></clipPath><clipPath
       clipPathUnits="userSpaceOnUse"
       id="clipPath592"><path
         d="m 53.416687,49.153781 295.783313,0 0,165.946219 -295.783313,0 0,-165.946219 z"
         id="path594" /></clipPath><clipPath
       clipPathUnits="userSpaceOnUse"
       id="clipPath602"><path
         d="m 141.15168,86.245355 2,0 0,22.784205 -2,0 0,-22.784205 z"
         id="path604" /></clipPath><clipPath
       clipPathUnits="userSpaceOnUse"
       id="clipPath614"><path
         d="m 53.416687,49.153781 295.783313,0 0,165.946219 -295.783313,0 0,-165.946219 z"
         id="path616" /></clipPath><clipPath
       clipPathUnits="userSpaceOnUse"
       id="clipPath624"><path
         d="m 174.95549,105.39102 2,0 0,47.97838 -2,0 0,-47.97838 z"
         id="path626" /></clipPath><clipPath
       clipPathUnits="userSpaceOnUse"
       id="clipPath636"><path
         d="m 53.416687,49.153781 295.783313,0 0,165.946219 -295.783313,0 0,-165.946219 z"
         id="path638" /></clipPath><clipPath
       clipPathUnits="userSpaceOnUse"
       id="clipPath646"><path
         d="m 183.40644,103.26964 2,0 0,32.61342 -2,0 0,-32.61342 z"
         id="path648" /></clipPath><clipPath
       clipPathUnits="userSpaceOnUse"
       id="clipPath658"><path
         d="m 53.416687,49.153781 295.783313,0 0,165.946219 -295.783313,0 0,-165.946219 z"
         id="path660" /></clipPath><clipPath
       clipPathUnits="userSpaceOnUse"
       id="clipPath668"><path
         d="m 200.30834,123.22014 2,0 0,75.82065 -2,0 0,-75.82065 z"
         id="path670" /></clipPath><clipPath
       clipPathUnits="userSpaceOnUse"
       id="clipPath680"><path
         d="m 53.416687,49.153781 295.783313,0 0,165.946219 -295.783313,0 0,-165.946219 z"
         id="path682" /></clipPath><clipPath
       clipPathUnits="userSpaceOnUse"
       id="clipPath690"><path
         d="m 217.21025,102.98626 2,0 0,33.56714 -2,0 0,-33.56714 z"
         id="path692" /></clipPath><clipPath
       clipPathUnits="userSpaceOnUse"
       id="clipPath702"><path
         d="m 53.416687,49.153781 295.783313,0 0,165.946219 -295.783313,0 0,-165.946219 z"
         id="path704" /></clipPath><clipPath
       clipPathUnits="userSpaceOnUse"
       id="clipPath712"><path
         d="m 221.43572,110.26398 2,0 0,41.37886 -2,0 0,-41.37886 z"
         id="path714" /></clipPath><clipPath
       clipPathUnits="userSpaceOnUse"
       id="clipPath724"><path
         d="m 53.416687,49.153781 295.783313,0 0,165.946219 -295.783313,0 0,-165.946219 z"
         id="path726" /></clipPath><clipPath
       clipPathUnits="userSpaceOnUse"
       id="clipPath734"><path
         d="m 221.43572,121.30877 2,0 0,40.40681 -2,0 0,-40.40681 z"
         id="path736" /></clipPath><clipPath
       clipPathUnits="userSpaceOnUse"
       id="clipPath746"><path
         d="m 53.416687,49.153781 295.783313,0 0,165.946219 -295.783313,0 0,-165.946219 z"
         id="path748" /></clipPath><clipPath
       clipPathUnits="userSpaceOnUse"
       id="clipPath756"><path
         d="m 221.43572,118.78201 2,0 0,44.78622 -2,0 0,-44.78622 z"
         id="path758" /></clipPath><clipPath
       clipPathUnits="userSpaceOnUse"
       id="clipPath768"><path
         d="m 53.416687,49.153781 295.783313,0 0,165.946219 -295.783313,0 0,-165.946219 z"
         id="path770" /></clipPath><clipPath
       clipPathUnits="userSpaceOnUse"
       id="clipPath778"><path
         d="m 251.01405,119.07777 2,0 0,47.37492 -2,0 0,-47.37492 z"
         id="path780" /></clipPath><clipPath
       clipPathUnits="userSpaceOnUse"
       id="clipPath790"><path
         d="m 53.416687,49.153781 295.783313,0 0,165.946219 -295.783313,0 0,-165.946219 z"
         id="path792" /></clipPath><clipPath
       clipPathUnits="userSpaceOnUse"
       id="clipPath800"><path
         d="m 251.01405,110.49667 2,0 0,33.68137 -2,0 0,-33.68137 z"
         id="path802" /></clipPath><clipPath
       clipPathUnits="userSpaceOnUse"
       id="clipPath812"><path
         d="m 53.416687,49.153781 295.783313,0 0,165.946219 -295.783313,0 0,-165.946219 z"
         id="path814" /></clipPath><clipPath
       clipPathUnits="userSpaceOnUse"
       id="clipPath822"><path
         d="m 259.46501,116.87961 2,0 0,45.64057 -2,0 0,-45.64057 z"
         id="path824" /></clipPath><clipPath
       clipPathUnits="userSpaceOnUse"
       id="clipPath834"><path
         d="m 53.416687,49.153781 295.783313,0 0,165.946219 -295.783313,0 0,-165.946219 z"
         id="path836" /></clipPath><clipPath
       clipPathUnits="userSpaceOnUse"
       id="clipPath844"><path
         d="m 263.69048,135.58787 2,0 0,58.29962 -2,0 0,-58.29962 z"
         id="path846" /></clipPath><clipPath
       clipPathUnits="userSpaceOnUse"
       id="clipPath856"><path
         d="m 53.416687,49.153781 295.783313,0 0,165.946219 -295.783313,0 0,-165.946219 z"
         id="path858" /></clipPath><clipPath
       clipPathUnits="userSpaceOnUse"
       id="clipPath866"><path
         d="m 263.69048,125.65474 2,0 0,35.49577 -2,0 0,-35.49577 z"
         id="path868" /></clipPath><clipPath
       clipPathUnits="userSpaceOnUse"
       id="clipPath878"><path
         d="m 53.416687,49.153781 295.783313,0 0,165.946219 -295.783313,0 0,-165.946219 z"
         id="path880" /></clipPath><clipPath
       clipPathUnits="userSpaceOnUse"
       id="clipPath888"><path
         d="m 305.94524,134.58631 2,0 0,40.41017 -2,0 0,-40.41017 z"
         id="path890" /></clipPath><clipPath
       clipPathUnits="userSpaceOnUse"
       id="clipPath900"><path
         d="m 53.416687,49.153781 295.783313,0 0,165.946219 -295.783313,0 0,-165.946219 z"
         id="path902" /></clipPath><clipPath
       clipPathUnits="userSpaceOnUse"
       id="clipPath910"><path
         d="m 327.07262,137.96074 2,0 0,44.36054 -2,0 0,-44.36054 z"
         id="path912" /></clipPath><clipPath
       clipPathUnits="userSpaceOnUse"
       id="clipPath922"><path
         d="m 53.416687,49.153781 295.783313,0 0,165.946219 -295.783313,0 0,-165.946219 z"
         id="path924" /></clipPath><clipPath
       clipPathUnits="userSpaceOnUse"
       id="clipPath932"><path
         d="m 327.07262,135.6203 2,0 0,44.55157 -2,0 0,-44.55157 z"
         id="path934" /></clipPath><clipPath
       clipPathUnits="userSpaceOnUse"
       id="clipPath942"><path
         d="m 53.416687,49.153781 295.783313,0 0,165.946219 -295.783313,0 0,-165.946219 z"
         id="path944" /></clipPath><clipPath
       clipPathUnits="userSpaceOnUse"
       id="clipPath952"><path
         d="m 53.416687,49.153781 295.783313,0 0,165.946219 -295.783313,0 0,-165.946219 z"
         id="path954" /></clipPath><clipPath
       clipPathUnits="userSpaceOnUse"
       id="clipPath962"><path
         d="m 53.416687,49.153781 295.783313,0 0,165.946219 -295.783313,0 0,-165.946219 z"
         id="path964" /></clipPath><clipPath
       clipPathUnits="userSpaceOnUse"
       id="clipPath972"><path
         d="m 53.416687,49.153781 295.783313,0 0,165.946219 -295.783313,0 0,-165.946219 z"
         id="path974" /></clipPath><clipPath
       clipPathUnits="userSpaceOnUse"
       id="clipPath980"><path
         d="m 53.416687,49.153781 295.783313,0 0,165.946219 -295.783313,0 0,-165.946219 z"
         id="path982" /></clipPath><clipPath
       clipPathUnits="userSpaceOnUse"
       id="clipPath990"><path
         d="m 53.416687,49.153781 295.783313,0 0,165.946219 -295.783313,0 0,-165.946219 z"
         id="path992" /></clipPath><clipPath
       clipPathUnits="userSpaceOnUse"
       id="clipPath1000"><path
         d="m 53.416687,49.153781 295.783313,0 0,165.946219 -295.783313,0 0,-165.946219 z"
         id="path1002" /></clipPath><clipPath
       clipPathUnits="userSpaceOnUse"
       id="clipPath1008"><path
         d="m 53.416687,49.153781 295.783313,0 0,165.946219 -295.783313,0 0,-165.946219 z"
         id="path1010" /></clipPath><clipPath
       clipPathUnits="userSpaceOnUse"
       id="clipPath1018"><path
         d="m 53.416687,49.153781 295.783313,0 0,165.946219 -295.783313,0 0,-165.946219 z"
         id="path1020" /></clipPath><clipPath
       clipPathUnits="userSpaceOnUse"
       id="clipPath1028"><path
         d="m 53.416687,49.153781 295.783313,0 0,165.946219 -295.783313,0 0,-165.946219 z"
         id="path1030" /></clipPath><clipPath
       clipPathUnits="userSpaceOnUse"
       id="clipPath1036"><path
         d="m 53.416687,49.153781 295.783313,0 0,165.946219 -295.783313,0 0,-165.946219 z"
         id="path1038" /></clipPath><clipPath
       clipPathUnits="userSpaceOnUse"
       id="clipPath1046"><path
         d="m 53.416687,49.153781 295.783313,0 0,165.946219 -295.783313,0 0,-165.946219 z"
         id="path1048" /></clipPath><clipPath
       clipPathUnits="userSpaceOnUse"
       id="clipPath1056"><path
         d="m 53.416687,49.153781 295.783313,0 0,165.946219 -295.783313,0 0,-165.946219 z"
         id="path1058" /></clipPath><clipPath
       clipPathUnits="userSpaceOnUse"
       id="clipPath1064"><path
         d="m 53.416687,49.153781 295.783313,0 0,165.946219 -295.783313,0 0,-165.946219 z"
         id="path1066" /></clipPath><clipPath
       clipPathUnits="userSpaceOnUse"
       id="clipPath1074"><path
         d="m 53.416687,49.153781 295.783313,0 0,165.946219 -295.783313,0 0,-165.946219 z"
         id="path1076" /></clipPath><clipPath
       clipPathUnits="userSpaceOnUse"
       id="clipPath1084"><path
         d="m 53.416687,49.153781 295.783313,0 0,165.946219 -295.783313,0 0,-165.946219 z"
         id="path1086" /></clipPath><clipPath
       clipPathUnits="userSpaceOnUse"
       id="clipPath1092"><path
         d="m 53.416687,49.153781 295.783313,0 0,165.946219 -295.783313,0 0,-165.946219 z"
         id="path1094" /></clipPath><clipPath
       clipPathUnits="userSpaceOnUse"
       id="clipPath1102"><path
         d="m 53.416687,49.153781 295.783313,0 0,165.946219 -295.783313,0 0,-165.946219 z"
         id="path1104" /></clipPath><clipPath
       clipPathUnits="userSpaceOnUse"
       id="clipPath1112"><path
         d="m 53.416687,49.153781 295.783313,0 0,165.946219 -295.783313,0 0,-165.946219 z"
         id="path1114" /></clipPath><clipPath
       clipPathUnits="userSpaceOnUse"
       id="clipPath1120"><path
         d="m 53.416687,49.153781 295.783313,0 0,165.946219 -295.783313,0 0,-165.946219 z"
         id="path1122" /></clipPath><clipPath
       clipPathUnits="userSpaceOnUse"
       id="clipPath1130"><path
         d="m 53.416687,49.153781 295.783313,0 0,165.946219 -295.783313,0 0,-165.946219 z"
         id="path1132" /></clipPath><clipPath
       clipPathUnits="userSpaceOnUse"
       id="clipPath1140"><path
         d="m 53.416687,49.153781 295.783313,0 0,165.946219 -295.783313,0 0,-165.946219 z"
         id="path1142" /></clipPath><clipPath
       clipPathUnits="userSpaceOnUse"
       id="clipPath1148"><path
         d="m 53.416687,49.153781 295.783313,0 0,165.946219 -295.783313,0 0,-165.946219 z"
         id="path1150" /></clipPath><clipPath
       clipPathUnits="userSpaceOnUse"
       id="clipPath1158"><path
         d="m 53.416687,49.153781 295.783313,0 0,165.946219 -295.783313,0 0,-165.946219 z"
         id="path1160" /></clipPath><clipPath
       clipPathUnits="userSpaceOnUse"
       id="clipPath1168"><path
         d="m 53.416687,49.153781 295.783313,0 0,165.946219 -295.783313,0 0,-165.946219 z"
         id="path1170" /></clipPath><clipPath
       clipPathUnits="userSpaceOnUse"
       id="clipPath1176"><path
         d="m 53.416687,49.153781 295.783313,0 0,165.946219 -295.783313,0 0,-165.946219 z"
         id="path1178" /></clipPath><clipPath
       clipPathUnits="userSpaceOnUse"
       id="clipPath1186"><path
         d="m 53.416687,49.153781 295.783313,0 0,165.946219 -295.783313,0 0,-165.946219 z"
         id="path1188" /></clipPath><clipPath
       clipPathUnits="userSpaceOnUse"
       id="clipPath1196"><path
         d="m 53.416687,49.153781 295.783313,0 0,165.946219 -295.783313,0 0,-165.946219 z"
         id="path1198" /></clipPath><clipPath
       clipPathUnits="userSpaceOnUse"
       id="clipPath1204"><path
         d="m 53.416687,49.153781 295.783313,0 0,165.946219 -295.783313,0 0,-165.946219 z"
         id="path1206" /></clipPath><clipPath
       clipPathUnits="userSpaceOnUse"
       id="clipPath1214"><path
         d="m 53.416687,49.153781 295.783313,0 0,165.946219 -295.783313,0 0,-165.946219 z"
         id="path1216" /></clipPath><clipPath
       clipPathUnits="userSpaceOnUse"
       id="clipPath1224"><path
         d="m 53.416687,49.153781 295.783313,0 0,165.946219 -295.783313,0 0,-165.946219 z"
         id="path1226" /></clipPath><clipPath
       clipPathUnits="userSpaceOnUse"
       id="clipPath1232"><path
         d="m 53.416687,49.153781 295.783313,0 0,165.946219 -295.783313,0 0,-165.946219 z"
         id="path1234" /></clipPath><clipPath
       clipPathUnits="userSpaceOnUse"
       id="clipPath1242"><path
         d="m 53.416687,49.153781 295.783313,0 0,165.946219 -295.783313,0 0,-165.946219 z"
         id="path1244" /></clipPath><clipPath
       clipPathUnits="userSpaceOnUse"
       id="clipPath1252"><path
         d="m 53.416687,49.153781 295.783313,0 0,165.946219 -295.783313,0 0,-165.946219 z"
         id="path1254" /></clipPath><clipPath
       clipPathUnits="userSpaceOnUse"
       id="clipPath1260"><path
         d="m 53.416687,49.153781 295.783313,0 0,165.946219 -295.783313,0 0,-165.946219 z"
         id="path1262" /></clipPath><clipPath
       clipPathUnits="userSpaceOnUse"
       id="clipPath1270"><path
         d="m 53.416687,49.153781 295.783313,0 0,165.946219 -295.783313,0 0,-165.946219 z"
         id="path1272" /></clipPath><clipPath
       clipPathUnits="userSpaceOnUse"
       id="clipPath1280"><path
         d="m 53.416687,49.153781 295.783313,0 0,165.946219 -295.783313,0 0,-165.946219 z"
         id="path1282" /></clipPath><clipPath
       clipPathUnits="userSpaceOnUse"
       id="clipPath1288"><path
         d="m 53.416687,49.153781 295.783313,0 0,165.946219 -295.783313,0 0,-165.946219 z"
         id="path1290" /></clipPath><clipPath
       clipPathUnits="userSpaceOnUse"
       id="clipPath1298"><path
         d="m 53.416687,49.153781 295.783313,0 0,165.946219 -295.783313,0 0,-165.946219 z"
         id="path1300" /></clipPath><clipPath
       clipPathUnits="userSpaceOnUse"
       id="clipPath1308"><path
         d="m 53.416687,49.153781 295.783313,0 0,165.946219 -295.783313,0 0,-165.946219 z"
         id="path1310" /></clipPath><clipPath
       clipPathUnits="userSpaceOnUse"
       id="clipPath1316"><path
         d="m 53.416687,49.153781 295.783313,0 0,165.946219 -295.783313,0 0,-165.946219 z"
         id="path1318" /></clipPath><clipPath
       clipPathUnits="userSpaceOnUse"
       id="clipPath1326"><path
         d="m 53.416687,49.153781 295.783313,0 0,165.946219 -295.783313,0 0,-165.946219 z"
         id="path1328" /></clipPath><clipPath
       clipPathUnits="userSpaceOnUse"
       id="clipPath1336"><path
         d="m 53.416687,49.153781 295.783313,0 0,165.946219 -295.783313,0 0,-165.946219 z"
         id="path1338" /></clipPath><clipPath
       clipPathUnits="userSpaceOnUse"
       id="clipPath1344"><path
         d="m 53.416687,49.153781 295.783313,0 0,165.946219 -295.783313,0 0,-165.946219 z"
         id="path1346" /></clipPath><clipPath
       clipPathUnits="userSpaceOnUse"
       id="clipPath1354"><path
         d="m 53.416687,49.153781 295.783313,0 0,165.946219 -295.783313,0 0,-165.946219 z"
         id="path1356" /></clipPath><clipPath
       clipPathUnits="userSpaceOnUse"
       id="clipPath1364"><path
         d="m 53.416687,49.153781 295.783313,0 0,165.946219 -295.783313,0 0,-165.946219 z"
         id="path1366" /></clipPath><clipPath
       clipPathUnits="userSpaceOnUse"
       id="clipPath1372"><path
         d="m 53.416687,49.153781 295.783313,0 0,165.946219 -295.783313,0 0,-165.946219 z"
         id="path1374" /></clipPath><clipPath
       clipPathUnits="userSpaceOnUse"
       id="clipPath1382"><path
         d="m 53.416687,49.153781 295.783313,0 0,165.946219 -295.783313,0 0,-165.946219 z"
         id="path1384" /></clipPath><clipPath
       clipPathUnits="userSpaceOnUse"
       id="clipPath1392"><path
         d="m 53.416687,49.153781 295.783313,0 0,165.946219 -295.783313,0 0,-165.946219 z"
         id="path1394" /></clipPath><clipPath
       clipPathUnits="userSpaceOnUse"
       id="clipPath1400"><path
         d="m 53.416687,49.153781 295.783313,0 0,165.946219 -295.783313,0 0,-165.946219 z"
         id="path1402" /></clipPath><clipPath
       clipPathUnits="userSpaceOnUse"
       id="clipPath1410"><path
         d="m 53.416687,49.153781 295.783313,0 0,165.946219 -295.783313,0 0,-165.946219 z"
         id="path1412" /></clipPath><clipPath
       clipPathUnits="userSpaceOnUse"
       id="clipPath1420"><path
         d="m 53.416687,49.153781 295.783313,0 0,165.946219 -295.783313,0 0,-165.946219 z"
         id="path1422" /></clipPath><clipPath
       clipPathUnits="userSpaceOnUse"
       id="clipPath1428"><path
         d="m 53.416687,49.153781 295.783313,0 0,165.946219 -295.783313,0 0,-165.946219 z"
         id="path1430" /></clipPath><clipPath
       clipPathUnits="userSpaceOnUse"
       id="clipPath1438"><path
         d="m 53.416687,49.153781 295.783313,0 0,165.946219 -295.783313,0 0,-165.946219 z"
         id="path1440" /></clipPath><clipPath
       clipPathUnits="userSpaceOnUse"
       id="clipPath1448"><path
         d="m 53.416687,49.153781 295.783313,0 0,165.946219 -295.783313,0 0,-165.946219 z"
         id="path1450" /></clipPath><clipPath
       clipPathUnits="userSpaceOnUse"
       id="clipPath1456"><path
         d="m 53.416687,49.153781 295.783313,0 0,165.946219 -295.783313,0 0,-165.946219 z"
         id="path1458" /></clipPath><clipPath
       clipPathUnits="userSpaceOnUse"
       id="clipPath1466"><path
         d="m 53.416687,49.153781 295.783313,0 0,165.946219 -295.783313,0 0,-165.946219 z"
         id="path1468" /></clipPath><clipPath
       clipPathUnits="userSpaceOnUse"
       id="clipPath1476"><path
         d="m 53.416687,49.153781 295.783313,0 0,165.946219 -295.783313,0 0,-165.946219 z"
         id="path1478" /></clipPath><clipPath
       clipPathUnits="userSpaceOnUse"
       id="clipPath1484"><path
         d="m 53.416687,49.153781 295.783313,0 0,165.946219 -295.783313,0 0,-165.946219 z"
         id="path1486" /></clipPath><clipPath
       clipPathUnits="userSpaceOnUse"
       id="clipPath1494"><path
         d="m 53.416687,49.153781 295.783313,0 0,165.946219 -295.783313,0 0,-165.946219 z"
         id="path1496" /></clipPath><clipPath
       clipPathUnits="userSpaceOnUse"
       id="clipPath1504"><path
         d="m 53.416687,49.153781 295.783313,0 0,165.946219 -295.783313,0 0,-165.946219 z"
         id="path1506" /></clipPath><clipPath
       clipPathUnits="userSpaceOnUse"
       id="clipPath336-2"><path
         inkscape:connector-curvature="0"
         d="M -6,-6 6,-6 6,6 -6,6 -6,-6 z"
         id="path338-3" /></clipPath><clipPath
       clipPathUnits="userSpaceOnUse"
       id="clipPath336-8"><path
         inkscape:connector-curvature="0"
         d="M -6,-6 6,-6 6,6 -6,6 -6,-6 z"
         id="path338-8" /></clipPath><clipPath
       clipPathUnits="userSpaceOnUse"
       id="clipPath324-1"><path
         inkscape:connector-curvature="0"
         d="M -6,-6 6,-6 6,6 -6,6 -6,-6 z"
         id="path326-4" /></clipPath></defs><g
     id="g10"
     inkscape:groupmode="layer"
     inkscape:label="rcat_increase_with_gr"
     transform="matrix(1.25,0,0,-1.25,0,288)"><g
       id="g498" /><g
       id="g520" /><g
       id="g542" /><g
       id="g564" /><g
       id="g586" /><g
       id="g608" /><g
       id="g630" /><g
       id="g652" /><g
       id="g674" /><g
       id="g696" /><g
       id="g718" /><g
       id="g740" /><g
       id="g762" /><g
       id="g784" /><g
       id="g806" /><g
       id="g828" /><g
       id="g850" /><g
       id="g872" /><g
       id="g894" /><g
       id="g916" /><g
       id="g968"><g
         id="g970"
         clip-path="url(#clipPath972)" /></g><g
       id="g996"><g
         id="g998"
         clip-path="url(#clipPath1000)" /></g><g
       id="g1024"><g
         id="g1026"
         clip-path="url(#clipPath1028)" /></g><g
       id="g1052"><g
         id="g1054"
         clip-path="url(#clipPath1056)" /></g><g
       id="g1080"><g
         id="g1082"
         clip-path="url(#clipPath1084)" /></g><g
       id="g1108"><g
         id="g1110"
         clip-path="url(#clipPath1112)" /></g><g
       id="g1136"><g
         id="g1138"
         clip-path="url(#clipPath1140)" /></g><g
       id="g1164"><g
         id="g1166"
         clip-path="url(#clipPath1168)" /></g><g
       id="g1192"><g
         id="g1194"
         clip-path="url(#clipPath1196)" /></g><g
       id="g1220"><g
         id="g1222"
         clip-path="url(#clipPath1224)" /></g><g
       id="g1248"><g
         id="g1250"
         clip-path="url(#clipPath1252)" /></g><g
       id="g1276"><g
         id="g1278"
         clip-path="url(#clipPath1280)" /></g><g
       id="g1304"><g
         id="g1306"
         clip-path="url(#clipPath1308)" /></g><g
       id="g1332"><g
         id="g1334"
         clip-path="url(#clipPath1336)" /></g><g
       id="g1360"><g
         id="g1362"
         clip-path="url(#clipPath1364)" /></g><g
       id="g1388"><g
         id="g1390"
         clip-path="url(#clipPath1392)" /></g><g
       id="g1416"><g
         id="g1418"
         clip-path="url(#clipPath1420)" /></g><g
       id="g1444"><g
         id="g1446"
         clip-path="url(#clipPath1448)" /></g><g
       id="g1472"><g
         id="g1474"
         clip-path="url(#clipPath1476)" /></g><g
       id="g1500"><g
         id="g1502"
         clip-path="url(#clipPath1504)" /></g></g></svg>