<?xml version="1.0" encoding="UTF-8" standalone="no"?>
<!-- Created with matplotlib (http://matplotlib.org/) -->

<svg
   xmlns:dc="http://purl.org/dc/elements/1.1/"
   xmlns:cc="http://creativecommons.org/ns#"
   xmlns:rdf="http://www.w3.org/1999/02/22-rdf-syntax-ns#"
   xmlns:svg="http://www.w3.org/2000/svg"
   xmlns="http://www.w3.org/2000/svg"
   xmlns:sodipodi="http://sodipodi.sourceforge.net/DTD/sodipodi-0.dtd"
   xmlns:inkscape="http://www.inkscape.org/namespaces/inkscape"
   height="360.17422"
   version="1.1"
   viewBox="0 0 533.51484 288.13938"
   width="666.89355"
   id="svg2"
   inkscape:version="0.48.4 r9939"
   sodipodi:docname="venn_diagram_for_rcat.svg.2015_05_06_17_27_37.0.svg">
  <metadata
     id="metadata213">
    <rdf:RDF>
      <cc:Work
         rdf:about="">
        <dc:format>image/svg+xml</dc:format>
        <dc:type
           rdf:resource="http://purl.org/dc/dcmitype/StillImage" />
        <dc:title />
      </cc:Work>
    </rdf:RDF>
  </metadata>
  <sodipodi:namedview
     pagecolor="#ffffff"
     bordercolor="#666666"
     borderopacity="1"
     objecttolerance="10"
     gridtolerance="10"
     guidetolerance="10"
     inkscape:pageopacity="0"
     inkscape:pageshadow="2"
     inkscape:window-width="1871"
     inkscape:window-height="1056"
     id="namedview211"
     showgrid="true"
     fit-margin-top="0"
     fit-margin-left="0"
     fit-margin-right="0"
     fit-margin-bottom="0"
     inkscape:zoom="1.1872712"
     inkscape:cx="246.00359"
     inkscape:cy="165.77899"
     inkscape:window-x="49"
     inkscape:window-y="24"
     inkscape:window-maximized="1"
     inkscape:current-layer="svg2" />
  <defs
     id="defs4"
     style="stroke-linecap:butt;stroke-linejoin:round">
    <marker
       inkscape:stockid="Arrow1Mstart"
       orient="auto"
       refY="0"
       refX="0"
       id="Arrow1Mstart"
       style="overflow:visible">
      <path
         id="path5937"
         d="M 0,0 5,-5 -12.5,0 5,5 0,0 z"
         style="fill-rule:evenodd;stroke:#000000;stroke-width:1pt;stroke-linecap:butt;stroke-linejoin:round"
         transform="matrix(0.4,0,0,0.4,4,0)"
         inkscape:connector-curvature="0" />
    </marker>
    <marker
       inkscape:stockid="Arrow1Lstart"
       orient="auto"
       refY="0"
       refX="0"
       id="Arrow1Lstart"
       style="overflow:visible">
      <path
         id="path5931"
         d="M 0,0 5,-5 -12.5,0 5,5 0,0 z"
         style="fill-rule:evenodd;stroke:#000000;stroke-width:1pt;stroke-linecap:butt;stroke-linejoin:round"
         transform="matrix(0.8,0,0,0.8,10,0)"
         inkscape:connector-curvature="0" />
    </marker>
    <style
       type="text/css"
       id="style6">
*{stroke-linecap:butt;stroke-linejoin:round;}
  </style>
    <clipPath
       id="p70c8f14e38-2">
      <rect
         id="rect3380"
         y="10.8"
         x="82.78997"
         width="266.42004"
         height="266.39999"
         style="stroke-linecap:butt;stroke-linejoin:round" />
    </clipPath>
    <style
       id="style3194"
       type="text/css">
*{stroke-linecap:butt;stroke-linejoin:round;}
  </style>
    <clipPath
       id="p9bf08bce2b">
      <rect
         id="rect4885"
         y="10.8"
         x="82.78997"
         width="266.42004"
         height="266.39999"
         style="stroke-linecap:butt;stroke-linejoin:round" />
    </clipPath>
    <style
       id="style4698"
       type="text/css">
*{stroke-linecap:butt;stroke-linejoin:round;}
  </style>
    <clipPath
       id="p70c8f14e38-5">
      <rect
         id="rect5367"
         y="10.8"
         x="82.78997"
         width="266.42004"
         height="266.39999"
         style="stroke-linecap:butt;stroke-linejoin:round" />
    </clipPath>
    <style
       id="style5181"
       type="text/css">
*{stroke-linecap:butt;stroke-linejoin:round;}
  </style>
    <marker
       inkscape:stockid="Arrow1Lstart"
       orient="auto"
       refY="0"
       refX="0"
       id="Arrow1Lstart-7"
       style="stroke-linecap:butt;stroke-linejoin:round;overflow:visible">
      <path
         inkscape:connector-curvature="0"
         id="path5931-5"
         d="M 0,0 5,-5 -12.5,0 5,5 0,0 z"
         style="fill-rule:evenodd;stroke:#000000;stroke-width:1pt;stroke-linecap:butt;stroke-linejoin:round"
         transform="matrix(0.8,0,0,0.8,10,0)" />
    </marker>
    <marker
       inkscape:stockid="Arrow1Lstart"
       orient="auto"
       refY="0"
       refX="0"
       id="Arrow1Lstart-2"
       style="stroke-linecap:butt;stroke-linejoin:round;overflow:visible">
      <path
         inkscape:connector-curvature="0"
         id="path5931-9"
         d="M 0,0 5,-5 -12.5,0 5,5 0,0 z"
         style="fill-rule:evenodd;stroke:#000000;stroke-width:1pt;stroke-linecap:butt;stroke-linejoin:round"
         transform="matrix(0.8,0,0,0.8,10,0)" />
    </marker>
  </defs>
  <g
     id="figure_1"
     style="stroke-linecap:butt;stroke-linejoin:round">
    <g
       id="patch_1"
       style="stroke-linecap:butt;stroke-linejoin:round">
      <path
         d="M 0,288 432,288 432,0 0,0 z"
         style="fill:#ffffff;stroke-linecap:butt;stroke-linejoin:round"
         id="path10"
         inkscape:connector-curvature="0" />
    </g>
    <g
       id="axes_1"
       style="stroke-linecap:butt;stroke-linejoin:round">
      <g
         id="patch_2"
         style="stroke-linecap:butt;stroke-linejoin:round">
        <path
           clip-path="url(#p70c8f14e38)"
           d="m 329.089,147.245 c -0.67,16.312 -6.374,32.024 -16.326,44.966 -9.951,12.943 -23.67,22.492 -39.262,27.33 -13.829,17.138 -33.452,28.648 -55.16,32.352 -21.707,3.705 -44.037,-0.645 -62.767,-12.228 16.881,10.661 36.287,16.666 56.238,17.403 19.952,0.738 39.747,-3.819 57.369,-13.205 17.621,-9.386 32.448,-23.27 42.969,-40.239 10.521,-16.968 16.366,-36.422 16.939,-56.379 m 0,-6.49 C 328.539,121.59 323.127,102.876 313.363,86.3767 303.599,69.877 289.799,56.1267 273.264,46.4216 256.73,36.7165 237.997,31.3715 218.83,30.8902 c -19.166,-0.4813 -38.144,3.9168 -55.145,12.7797 -17,8.863 -31.473,21.9033 -42.053,37.8922 -10.58,15.9888 -16.924,34.4079 -18.436,53.5199 -1.511,19.113 1.861,38.3 9.797,55.753 7.936,17.452 20.179,32.605 35.576,44.029 -15.912,-12.041 -27.399,-29.018 -32.659,-48.267 -5.26,-19.25 -4.003,-39.709 3.575,-58.17 7.577,-18.46 21.057,-33.9023 38.324,-43.9045 17.268,-10.0022 37.37,-14.0123 57.153,-11.4013 11.812,-5.8492 24.9,-8.6542 38.072,-8.1589 13.171,0.4952 26.012,4.2752 37.351,10.9949 11.339,6.7198 20.821,16.1686 27.58,27.4848 6.759,11.315 10.583,24.143 11.124,37.313"
           style="opacity:0.4;fill:#b2b2b2;stroke-linecap:butt;stroke-linejoin:round"
           id="path14"
           inkscape:connector-curvature="0" />
      </g>
      <g
         id="patch_3"
         style="stroke-linecap:butt;stroke-linejoin:round">
        <path
           clip-path="url(#p70c8f14e38)"
           d="m 329.089,140.755 c -0.541,-13.17 -4.365,-25.998 -11.124,-37.313 -6.759,-11.3162 -16.241,-20.765 -27.58,-27.4848 -11.339,-6.7197 -24.18,-10.4997 -37.351,-10.9949 -13.172,-0.4953 -26.26,2.3097 -38.072,8.1589 15.917,2.1008 30.992,8.4037 43.667,18.2582 12.675,9.8546 22.5,22.9096 28.46,37.8176 5.96,14.908 7.843,31.138 5.455,47.014 -2.388,15.877 -8.962,30.835 -19.043,43.33 15.592,-4.838 29.311,-14.387 39.262,-27.33 9.952,-12.942 15.656,-28.654 16.326,-44.966 0.031,-1.081 0.046,-2.163 0.046,-3.245 0,-1.082 -0.015,-2.164 -0.046,-3.245"
           style="opacity:0.4;fill:#153eb6;fill-opacity:1;stroke-linecap:butt;stroke-linejoin:round"
           id="path17"
           inkscape:connector-curvature="0" />
      </g>
      <g
         id="patch_4"
         style="fill:#39be39;fill-opacity:1;stroke-linecap:butt;stroke-linejoin:round">
        <path
           clip-path="url(#p70c8f14e38)"
           d="m 273.501,219.541 c -18.991,5.892 -39.522,4.412 -57.471,-4.144 -17.949,-8.555 -32.028,-23.572 -39.41,-42.035 -7.381,-18.463 -7.536,-39.047 -0.432,-57.619 7.104,-18.5712 20.956,-33.7978 38.774,-42.6218 -19.783,-2.611 -39.885,1.3991 -57.153,11.4013 -17.267,10.0022 -30.747,25.4445 -38.324,43.9045 -7.578,18.461 -8.835,38.92 -3.575,58.17 5.26,19.249 16.747,36.226 32.659,48.267 1.137,0.844 2.29,1.666 3.458,2.467 1.168,0.8 2.35,1.578 3.547,2.334 18.73,11.583 41.06,15.933 62.767,12.228 21.708,-3.704 41.331,-15.214 55.16,-32.352"
           style="opacity:0.4;fill:#39be39;fill-opacity:1;stroke-linecap:butt;stroke-linejoin:round"
           id="path20"
           inkscape:connector-curvature="0" />
      </g>
      <g
         id="patch_5"
         style="stroke-linecap:butt;stroke-linejoin:round">
        <path
           clip-path="url(#p70c8f14e38)"
           d="m 214.962,73.1212 c -17.818,8.824 -31.67,24.0506 -38.774,42.6218 -7.104,18.572 -6.949,39.156 0.432,57.619 7.382,18.463 21.461,33.48 39.41,42.035 17.949,8.556 38.48,10.036 57.471,4.144 10.081,-12.495 16.655,-27.453 19.043,-43.33 2.388,-15.876 0.505,-32.106 -5.455,-47.014 -5.96,-14.908 -15.785,-27.963 -28.46,-37.8176 -12.675,-9.8545 -27.75,-16.1574 -43.667,-18.2582"
           style="opacity:0.4;fill:#477aad;stroke-linecap:butt;stroke-linejoin:round"
           id="path23"
           inkscape:connector-curvature="0" />
      </g>
      <g
         id="text_5"
         style="stroke-linecap:butt;stroke-linejoin:round">
        <!-- genes of enzymes -->
        <defs
           id="defs78">
          <path
             id="BitstreamVeraSans-Roman-20"
             inkscape:connector-curvature="0"
             style="stroke-linecap:butt;stroke-linejoin:round"
             d="" />
          <path
             d="m 54.8906,33.0156 0,-33.0156 -8.9844,0 0,32.7188 q 0,7.7656 -3.0312,11.6093 -3.0312,3.8594 -9.0781,3.8594 -7.2813,0 -11.4844,-4.6406 -4.2031,-4.625 -4.2031,-12.6407 l 0,-30.9062 -9.03128,0 0,54.6875 9.03128,0 0,-8.5 q 3.2344,4.9375 7.5937,7.375 Q 30.0781,56 35.7969,56 q 9.4219,0 14.25,-5.8281 4.8437,-5.8281 4.8437,-17.1563"
             id="BitstreamVeraSans-Roman-6e"
             inkscape:connector-curvature="0"
             style="stroke-linecap:butt;stroke-linejoin:round" />
          <path
             d="M 52,44.1875 Q 55.375,50.25 60.0625,53.125 64.75,56 71.0938,56 q 8.5468,0 13.1874,-5.9844 4.6407,-5.9687 4.6407,-17 l 0,-33.0156 -9.0313,0 0,32.7188 q 0,7.8593 -2.7968,11.6562 -2.7813,3.8125 -8.4844,3.8125 -6.9844,0 -11.0469,-4.6406 -4.0469,-4.625 -4.0469,-12.6407 l 0,-30.9062 -9.0312,0 0,32.7188 q 0,7.9062 -2.7813,11.6874 -2.7812,3.7813 -8.5937,3.7813 -6.8906,0 -10.9532,-4.6563 -4.0468,-4.6562 -4.0468,-12.625 l 0,-30.9062 -9.03128,0 0,54.6875 9.03128,0 0,-8.5 q 3.0781,5.0313 7.375,7.4219 Q 29.7812,56 35.6875,56 41.6562,56 45.8281,52.9688 50,49.9531 52,44.1875"
             id="BitstreamVeraSans-Roman-6d"
             inkscape:connector-curvature="0"
             style="stroke-linecap:butt;stroke-linejoin:round" />
          <path
             d="m 30.6094,48.3906 q -7.2188,0 -11.4219,-5.6406 -4.2031,-5.6406 -4.2031,-15.4531 0,-9.8125 4.1718,-15.4531 4.1876,-5.64068 11.4532,-5.64068 7.1875,0 11.375,5.65628 4.2031,5.6718 4.2031,15.4375 0,9.7187 -4.2031,15.4062 -4.1875,5.6875 -11.375,5.6875 m 0,7.6094 q 11.7187,0 18.4062,-7.625 6.7032,-7.6094 6.7032,-21.0781 0,-13.4219 -6.7032,-21.07815 -6.6875,-7.64063 -18.4062,-7.64063 -11.7656,0 -18.4375,7.64063 -6.65628,7.65625 -6.65628,21.07815 0,13.4687 6.65628,21.0781 Q 18.8438,56 30.6094,56"
             id="BitstreamVeraSans-Roman-6f"
             inkscape:connector-curvature="0"
             style="stroke-linecap:butt;stroke-linejoin:round" />
          <path
             d="m 5.51562,54.6875 42.67188,0 0,-8.2031 -33.7813,-39.31252 33.7813,0 0,-7.17188 -43.89062,0 0,8.20312 33.79692,39.31248 -32.57818,0 z"
             id="BitstreamVeraSans-Roman-7a"
             inkscape:connector-curvature="0"
             style="stroke-linecap:butt;stroke-linejoin:round" />
          <path
             d="M 32.1719,-5.07812 Q 28.375,-14.8438 24.75,-17.8125 q -3.6094,-2.9844 -9.6562,-2.9844 l -7.18755,0 0,7.5157 5.28125,0 q 3.7031,0 5.75,1.7656 2.0625,1.74998 4.5469,8.29685 L 25.0938,0.875 2.98438,54.6875 l 9.51562,0 17.0938,-42.7656 17.0937,42.7656 9.5156,0 z"
             id="BitstreamVeraSans-Roman-79"
             inkscape:connector-curvature="0"
             style="stroke-linecap:butt;stroke-linejoin:round" />
          <path
             d="m 56.2031,29.5938 0,-4.3907 -41.3125,0 q 0.5938,-9.2812 5.5938,-14.1406 5,-4.85938 13.9375,-4.85938 5.1719,0 10.0312,1.26563 4.8594,1.26563 9.6563,3.81245 l 0,-8.49995 q -4.8438,-2.046875 -9.9219,-3.125 -5.0781,-1.07813 -10.2969,-1.07813 -13.0937,0 -20.7344,7.60938 -7.64058,7.625 -7.64058,20.625 0,13.4219 7.24998,21.2969 Q 20.0156,56 32.3281,56 q 11.0313,0 17.4531,-7.1094 6.4219,-7.0937 6.4219,-19.2968 m -8.9843,2.6406 q -0.0938,7.3594 -4.125,11.75 -4.0313,4.4062 -10.6719,4.4062 -7.5157,0 -12.0313,-4.25 -4.5156,-4.25 -5.2031,-11.9687 z"
             id="BitstreamVeraSans-Roman-65"
             inkscape:connector-curvature="0"
             style="stroke-linecap:butt;stroke-linejoin:round" />
          <path
             d="m 45.4062,27.9844 q 0,9.7656 -4.0312,15.125 -4.0156,5.375 -11.2969,5.375 -7.2187,0 -11.25,-5.375 -4.0312,-5.3594 -4.0312,-15.125 0,-9.7188 4.0312,-15.0938 4.0313,-5.37498 11.25,-5.37498 7.2813,0 11.2969,5.37498 4.0312,5.375 4.0312,15.0938 M 54.3906,6.78125 q 0,-13.95313 -6.2031,-20.76565 -6.1875,-6.8125 -18.9844,-6.8125 -4.7343,0 -8.9375,0.7031 -4.2031,0.7032 -8.1562,2.1719 l 0,8.7344 q 3.9531,-2.1406 7.8125,-3.1563 3.8593,-1.0312 7.8593,-1.0312 8.8438,0 13.2344,4.60938 4.3906,4.60937 4.3906,13.9375 l 0,4.45312 Q 42.625,4.78125 38.2812,2.39062 33.9375,0 27.875,0 17.8281,0 11.6719,7.65625 5.51562,15.3281 5.51562,27.9844 q 0,12.6875 6.15628,20.3437 Q 17.8281,56 27.875,56 q 6.0625,0 10.4062,-2.3906 4.3438,-2.3906 7.125,-7.2188 l 0,8.2969 8.9844,0 z"
             id="BitstreamVeraSans-Roman-67"
             inkscape:connector-curvature="0"
             style="stroke-linecap:butt;stroke-linejoin:round" />
          <path
             d="m 37.1094,75.9844 0,-7.4844 -8.5938,0 q -4.8281,0 -6.7187,-1.9531 -1.875,-1.9531 -1.875,-7.0313 l 0,-4.8281 14.7969,0 0,-6.9844 -14.7969,0 0,-47.7031 -9.0313,0 0,47.7031 -8.59372,0 0,6.9844 8.59372,0 0,3.8125 q 0,9.125 4.25,13.2969 4.25,4.1875 13.4688,4.1875 z"
             id="BitstreamVeraSans-Roman-66"
             inkscape:connector-curvature="0"
             style="stroke-linecap:butt;stroke-linejoin:round" />
          <path
             d="m 44.2812,53.0781 0,-8.5 q -3.7968,1.9531 -7.9062,2.9219 -4.0938,0.9844 -8.5,0.9844 -6.6875,0 -10.0312,-2.0469 Q 14.5,44.3906 14.5,40.2812 q 0,-3.125 2.3906,-4.9062 2.3906,-1.7812 9.625,-3.3906 l 3.0782,-0.6875 q 9.5624,-2.0469 13.5937,-5.7813 4.0313,-3.7344 4.0313,-10.4218 0,-7.62505 -6.0313,-12.07818 -6.0313,-4.4375 -16.5781,-4.4375 -4.3906,0 -9.1563,0.85938 Q 10.6875,0.296875 5.42188,2 l 0,9.2812 q 4.98432,-2.5937 9.81252,-3.89058 4.8281,-1.28124 9.5781,-1.28124 6.3437,0 9.75,2.17187 3.4219,2.17185 3.4219,6.12495 0,3.6563 -2.4688,5.6094 -2.4531,1.9532 -10.8125,3.7656 l -3.125,0.7344 q -8.3437,1.75 -12.06248,5.3906 -3.70312,3.6407 -3.70312,9.9844 0,7.7188 5.4687,11.9063 Q 16.75,56 26.8125,56 q 4.9687,0 9.3594,-0.7344 4.4062,-0.7187 8.1093,-2.1875"
             id="BitstreamVeraSans-Roman-73"
             inkscape:connector-curvature="0"
             style="stroke-linecap:butt;stroke-linejoin:round" />
        </defs>
      </g>
      <text
         xml:space="preserve"
         style="font-size:14px;font-style:italic;font-weight:normal;line-height:125%;letter-spacing:0px;word-spacing:0px;fill:#000000;fill-opacity:1;stroke:none;font-family:Sans;-inkscape-font-specification:Sans Italic"
         x="302.77228"
         y="222.77228"
         id="text4591"
         sodipodi:linespacing="125%"
         transform="scale(0.8,0.8)"><tspan
           sodipodi:role="line"
           id="tspan4593"
           x="302.77228"
           y="222.77228" /></text>
      <text
         xml:space="preserve"
         style="font-size:11.19999981px;font-style:normal;font-weight:normal;line-height:125%;letter-spacing:0px;word-spacing:0px;fill:#000000;fill-opacity:1;stroke:none;font-family:Sans;-inkscape-font-specification:Sans"
         x="138.94196"
         y="190.05714"
         id="text4533"
         sodipodi:linespacing="125%"><tspan
           sodipodi:role="line"
           id="tspan4535"
           x="138.94196"
           y="190.05714">397</tspan></text>
      <text
         sodipodi:linespacing="125%"
         id="text4640"
         y="75.359306"
         x="375.05798"
         style="font-size:11.19999981px;font-style:normal;font-weight:normal;text-align:center;line-height:125%;letter-spacing:0px;word-spacing:0px;text-anchor:middle;fill:#6f89d2;fill-opacity:1;stroke:none;font-family:Sans;-inkscape-font-specification:Sans"
         xml:space="preserve"><tspan
           y="75.359306"
           x="375.05798"
           sodipodi:role="line"
           id="tspan4644">homomeric enzymes</tspan><tspan
           y="89.359306"
           x="375.05798"
           sodipodi:role="line"
           id="tspan4660">(# 668)</tspan></text>
      <text
         xml:space="preserve"
         style="font-size:11.19999981px;font-style:normal;font-weight:normal;text-align:center;line-height:125%;letter-spacing:0px;word-spacing:0px;text-anchor:middle;fill:#949494;fill-opacity:1;stroke:none;font-family:Sans;-inkscape-font-specification:Sans"
         x="72.612312"
         y="54.748196"
         id="text4662"
         sodipodi:linespacing="125%"><tspan
           id="tspan4664"
           sodipodi:role="line"
           x="72.612312"
           y="54.748196">genes of enzymes</tspan><tspan
           id="tspan4666"
           sodipodi:role="line"
           x="72.612312"
           y="68.748192">(# 1366)</tspan></text>
      <text
         sodipodi:linespacing="125%"
         id="text4668"
         y="251.89796"
         x="91.879219"
         style="font-size:11.19999981px;font-style:normal;font-weight:normal;text-align:center;line-height:125%;letter-spacing:0px;word-spacing:0px;text-anchor:middle;fill:#4cc94c;fill-opacity:1;stroke:none;font-family:Sans;-inkscape-font-specification:Sans"
         xml:space="preserve"><tspan
           y="251.89796"
           x="93.662033"
           sodipodi:role="line"
           id="tspan4670">expressed </tspan><tspan
           y="265.89795"
           x="91.879219"
           sodipodi:role="line"
           id="tspan4680">(&gt; 10 [copies / fl cytoplasm])</tspan><tspan
           y="279.89795"
           x="91.879219"
           sodipodi:role="line"
           id="tspan4672">(# 872)</tspan></text>
      <text
         xml:space="preserve"
         style="font-size:11.19999981px;font-style:italic;font-weight:normal;text-align:center;line-height:125%;letter-spacing:0px;word-spacing:0px;text-anchor:middle;fill:#ca7f49;fill-opacity:1;stroke:none;font-family:Sans;-inkscape-font-specification:Sans"
         x="403.81799"
         y="244.66281"
         id="text4682"
         sodipodi:linespacing="125%"><tspan
           sodipodi:role="line"
           x="405.6008"
           y="244.66281"
           id="tspan4686"
           style="font-style:normal;font-weight:normal;fill:#ca7f49;fill-opacity:1;-inkscape-font-specification:Sans">homomeric enzymes which </tspan><tspan
           sodipodi:role="line"
           x="405.6008"
           y="258.66281"
           id="tspan4690"
           style="font-style:normal;font-weight:normal;fill:#ca7f49;fill-opacity:1;-inkscape-font-specification:Sans">support flux in at least one metabolic reaction </tspan><tspan
           sodipodi:role="line"
           x="403.81799"
           y="272.66281"
           id="tspan4692"
           style="font-style:normal;font-weight:normal;fill:#ca7f49;fill-opacity:1;-inkscape-font-specification:Sans">for at least one growth conditions</tspan><tspan
           sodipodi:role="line"
           x="403.81799"
           y="286.66281"
           id="tspan3070"
           style="font-style:normal;font-weight:normal;fill:#ca7f49;fill-opacity:1;-inkscape-font-specification:Sans">(# 220)</tspan></text>
    </g>
  </g>
  <defs
     id="defs206">
    <clipPath
       id="p70c8f14e38">
      <rect
         height="266.39999"
         width="266.42004"
         x="82.78997"
         y="10.8"
         id="rect209"
         style="stroke-linecap:butt;stroke-linejoin:round" />
    </clipPath>
  </defs>
  <text
     sodipodi:linespacing="125%"
     id="text4599"
     y="119.90723"
     x="293.49438"
     style="font-size:11.19999981px;font-style:normal;font-weight:normal;line-height:125%;letter-spacing:0px;word-spacing:0px;fill:#000000;fill-opacity:1;stroke:none;font-family:Sans;-inkscape-font-specification:Sans"
     xml:space="preserve"><tspan
       y="119.90723"
       x="293.49438"
       id="tspan4601"
       sodipodi:role="line">192</tspan></text>
  <text
     xml:space="preserve"
     style="font-size:11.19999981px;font-style:normal;font-weight:normal;line-height:125%;letter-spacing:0px;word-spacing:0px;fill:#000000;fill-opacity:1;stroke:none;font-family:Sans;-inkscape-font-specification:Sans"
     x="211.75182"
     y="121.17455"
     id="text4609"
     sodipodi:linespacing="125%"><tspan
       sodipodi:role="line"
       id="tspan4611"
       x="211.75182"
       y="121.17455">272</tspan></text>
  <text
     sodipodi:linespacing="125%"
     id="text4613"
     y="54.639896"
     x="190.20726"
     style="font-size:11.19999981px;font-style:normal;font-weight:normal;line-height:125%;letter-spacing:0px;word-spacing:0px;fill:#000000;fill-opacity:1;stroke:none;font-family:Sans;-inkscape-font-specification:Sans"
     xml:space="preserve"><tspan
       y="54.639896"
       x="190.20726"
       id="tspan4615"
       sodipodi:role="line">301</tspan></text>
  <g
     style="fill:#c47037;fill-opacity:1;stroke-linecap:butt;stroke-linejoin:round"
     id="axes_1-0"
     transform="translate(-425.68309,-290.78613)">
    <g
       style="fill:#c47037;fill-opacity:1;stroke-linecap:butt;stroke-linejoin:round"
       id="patch_4-9"
       transform="translate(398.94744,321.94053)">
      <path
         inkscape:connector-curvature="0"
         clip-path="url(#p9bf08bce2b)"
         d="m 328.935,149.908 c 0.033,-0.443 0.062,-0.887 0.088,-1.331 0.026,-0.443 0.048,-0.888 0.066,-1.332 0.011,-0.375 0.02,-0.75 0.027,-1.125 0.007,-0.375 0.012,-0.75 0.015,-1.125 -0.083,-5.857 -1.299,-11.642 -3.581,-17.037 -2.281,-5.394 -5.586,-10.296 -9.73,-14.435 -4.145,-4.139 -9.051,-7.437 -14.449,-9.711 -5.397,-2.275 -11.184,-3.483 -17.041,-3.559 -5.857,-0.075 -11.673,0.984 -17.127,3.118 -5.455,2.135 -10.444,5.305 -14.694,9.336 -4.25,4.031 -7.679,8.846 -10.099,14.18 -2.42,5.334 -3.785,11.086 -4.019,16.939 -0.234,5.852 0.667,11.695 2.653,17.205 1.986,5.51 5.02,10.584 8.934,14.941 3.914,4.358 8.635,7.917 13.901,10.48 5.267,2.564 10.98,4.084 16.824,4.476 5.844,0.393 11.709,-0.349 17.271,-2.185 5.562,-1.836 10.716,-4.732 15.178,-8.526 4.461,-3.795 8.147,-8.418 10.852,-13.613 2.705,-5.194 4.38,-10.864 4.931,-16.696"
         style="opacity:0.4;fill:#c47037;fill-opacity:1;stroke-linecap:butt;stroke-linejoin:round"
         id="path4712" />
    </g>
    <g
       style="fill:#c47037;fill-opacity:1;stroke-linecap:butt;stroke-linejoin:round"
       id="axes_1-9"
       transform="translate(-1107.1234,111.07453)" />
  </g>
  <text
     sodipodi:linespacing="125%"
     id="text5683"
     y="181.3613"
     x="246.85863"
     style="font-size:11.19999981px;font-style:normal;font-weight:normal;line-height:125%;letter-spacing:0px;word-spacing:0px;fill:#000000;fill-opacity:1;stroke:none;font-family:Sans;-inkscape-font-specification:Sans"
     xml:space="preserve"><tspan
       y="181.3613"
       x="246.85863"
       id="tspan5685"
       sodipodi:role="line">204</tspan></text>
  <text
     xml:space="preserve"
     style="font-size:11.19999981px;font-style:normal;font-weight:normal;line-height:125%;letter-spacing:0px;word-spacing:0px;fill:#000000;fill-opacity:1;stroke:none;font-family:Sans;-inkscape-font-specification:Sans"
     x="290.647"
     y="196.08745"
     id="text5687"
     sodipodi:linespacing="125%"><tspan
       sodipodi:role="line"
       id="tspan5689"
       x="290.647"
       y="196.08745">16</tspan></text>
  <path
     style="fill:none;stroke:#000000;stroke-width:0.95999998;stroke-linecap:butt;stroke-linejoin:miter;stroke-miterlimit:3;stroke-opacity:1;stroke-dasharray:none;marker-start:url(#Arrow1Mstart)"
     d="m 277.64603,176.86538 82.02827,0"
     id="path6621"
     inkscape:connector-curvature="0" />
  <text
     xml:space="preserve"
     style="font-size:11.19999981px;font-style:normal;font-weight:normal;text-align:center;line-height:125%;letter-spacing:0px;word-spacing:0px;text-anchor:middle;fill:#000000;fill-opacity:1;stroke:none;font-family:Sans;-inkscape-font-specification:Sans"
     x="431.40408"
     y="172.10992"
     id="text7185"
     sodipodi:linespacing="125%"><tspan
       sodipodi:role="line"
       id="tspan7187"
       x="432.56293"
       y="172.10992">enzymes for which <tspan
   style="font-style:italic;font-weight:normal;-inkscape-font-specification:Sans"
   id="tspan3068">r</tspan><tspan
   style="font-size:7.28010273px;font-style:normal;font-weight:normal;baseline-shift:sub;-inkscape-font-specification:Sans"
   id="tspan3066">cat </tspan></tspan><tspan
       sodipodi:role="line"
       x="431.40408"
       y="186.10992"
       id="tspan3064">can be estimated</tspan><tspan
       sodipodi:role="line"
       x="431.40408"
       y="200.10992"
       id="tspan3866">(242 enzyme-reaction pairs)</tspan><tspan
       sodipodi:role="line"
       x="431.40408"
       y="214.10992"
       id="tspan3072" /></text>
</svg>
